{"asset":{"version":"2.0","generator":"THREE.GLTFExporter"},"scenes":[{"nodes":[1]}],"scene":0,"nodes":[{"translation":[4.512250000238415,0,0],"name":"Cylinder","mesh":0},{"children":[0]}],"bufferViews":[{"buffer":0,"byteOffset":0,"byteLength":1020,"target":34962,"byteStride":12},{"buffer":0,"byteOffset":1020,"byteLength":1020,"target":34962,"byteStride":12},{"buffer":0,"byteOffset":2040,"byteLength":680,"target":34962,"byteStride":8},{"buffer":0,"byteOffset":2720,"byteLength":768,"target":34963},{"buffer":0,"byteOffset":3488,"byteLength":8},{"buffer":0,"byteOffset":3496,"byteLength":24}],"buffers":[{"byteLength":3520,"uri":"data:application/octet-stream;base64,"}],"accessors":[{"bufferView":0,"componentType":5126,"count":85,"max":[4,6.2831854820251465,4],"min":[-4,-6.2831854820251465,2.4492937051703357e-16],"type":"VEC3"},{"bufferView":1,"componentType":5126,"count":85,"max":[1,0,1],"min":[-1,0,6.123234262925839e-17],"type":"VEC3"},{"bufferView":2,"componentType":5126,"count":85,"max":[1,1],"min":[0,0],"type":"VEC2"},{"bufferView":3,"componentType":5123,"count":384,"max":[84],"min":[0],"type":"SCALAR"},{"bufferView":4,"componentType":5126,"count":2,"max":[80],"min":[0],"type":"SCALAR"},{"bufferView":5,"componentType":5126,"count":2,"max":[10,0,0],"min":[0,0,0],"type":"VEC3"}],"materials":[{"pbrMetallicRoughness":{"metallicFactor":0,"roughnessFactor":0.9,"baseColorTexture":{"index":0}},"extensions":{"KHR_materials_unlit":{}}}],"textures":[{"sampler":0,"source":0}],"samplers":[{"magFilter":9729,"minFilter":9729,"wrapS":10497,"wrapT":10497}],"images":[{"mimeType":"image/png","uri":"data:image/png;base64,"}],"meshes":[{"primitives":[{"mode":4,"attributes":{"POSITION":0,"NORMAL":1,"TEXCOORD_0":2},"indices":3,"material":0}]}],"animations":[{"name":"default","samplers":[{"input":4,"output":5,"interpolation":"LINEAR"}],"channels":[{"sampler":0,"target":{"node":0,"path":"translation"}}]}],"extensionsUsed":["KHR_materials_unlit"]}